<svg width="512" height="512" viewBox="0 0 512 512" fill="none" xmlns="http://www.w3.org/2000/svg">
<g clip-path="url(#clip0_2_20)">
<path d="M0 0H512V512H0V0Z" fill="white"/>
<path d="M0 0H312C422.457 0 512 89.5431 512 200V312C512 422.457 422.457 512 312 512H0V0Z" fill="#2448FF"/>
<path d="M64.242 330.6C56.342 330.6 50.792 328.85 47.592 325.35C44.492 321.85 42.942 315.7 42.942 306.9V285.9C42.942 279.8 41.992 275.7 40.092 273.6C38.192 271.5 34.892 270.45 30.192 270.45H22.392V255.45H30.342C35.042 255.45 38.292 254.4 40.092 252.3C41.992 250.2 42.942 246.1 42.942 240V218.7C42.942 210 44.492 203.9 47.592 200.4C50.792 196.9 56.342 195.15 64.242 195.15H80.592V208.8H69.342C65.942 208.8 63.592 209.6 62.292 211.2C61.092 212.7 60.492 215.3 60.492 219V238.2C60.492 244.6 59.592 249.8 57.792 253.8C55.992 257.7 53.042 260.55 48.942 262.35C44.942 264.15 39.442 265.05 32.442 265.05V260.25C39.442 260.25 44.942 261.2 48.942 263.1C53.042 264.9 55.992 267.8 57.792 271.8C59.592 275.7 60.492 281 60.492 287.7V306.6C60.492 310.3 61.092 312.95 62.292 314.55C63.592 316.25 65.942 317.1 69.342 317.1H80.592V330.6H64.242ZM106.783 309V211.95H162.733C175.733 211.95 185.583 214.15 192.283 218.55C199.083 222.85 202.483 229.3 202.483 237.9C202.483 243.4 201.133 247.75 198.433 250.95C195.733 254.05 191.883 256.35 186.883 257.85C181.983 259.35 176.183 260.3 169.483 260.7L170.083 259.65C174.983 259.75 179.583 260.1 183.883 260.7C188.283 261.3 192.133 262.4 195.433 264C198.733 265.6 201.333 267.85 203.233 270.75C205.133 273.55 206.083 277.25 206.083 281.85C206.083 287.85 204.483 292.85 201.283 296.85C198.083 300.75 193.633 303.7 187.933 305.7C182.233 307.7 175.633 308.8 168.133 309H106.783ZM126.733 292.5H166.033C172.333 292.5 177.183 291.5 180.583 289.5C183.983 287.4 185.683 284.1 185.683 279.6C185.683 276.3 184.683 273.9 182.683 272.4C180.683 270.9 178.033 270 174.733 269.7C171.433 269.3 167.883 269.1 164.083 269.1H126.733V292.5ZM126.733 253.05H161.983C168.283 253.05 173.133 252.15 176.533 250.35C179.933 248.45 181.633 245.25 181.633 240.75C181.633 236.25 179.933 233.1 176.533 231.3C173.133 229.4 168.633 228.45 163.033 228.45H126.733V253.05ZM242.899 259.5V276.6H220.249V259.5H242.899ZM338.972 299.1H329.522L385.322 211.95H405.272V309H385.322V238.5L390.122 239.85L345.572 309H323.222L278.672 240.15L283.472 238.8V309H263.522V211.95H283.472L338.972 299.1ZM447.817 195.15C455.717 195.15 461.217 196.9 464.317 200.4C467.517 203.9 469.117 210.05 469.117 218.85V239.85C469.117 245.95 470.067 250.05 471.967 252.15C473.867 254.25 477.167 255.3 481.867 255.3H489.667V270.3H481.717C477.017 270.3 473.717 271.35 471.817 273.45C470.017 275.55 469.117 279.65 469.117 285.75V307.05C469.117 315.75 467.517 321.85 464.317 325.35C461.217 328.85 455.717 330.6 447.817 330.6H431.467V316.95H442.717C446.117 316.95 448.417 316.15 449.617 314.55C450.917 313.05 451.567 310.45 451.567 306.75V287.55C451.567 281.05 452.467 275.85 454.267 271.95C456.067 268.05 459.017 265.2 463.117 263.4C467.217 261.6 472.717 260.7 479.617 260.7V265.5C472.717 265.5 467.217 264.6 463.117 262.8C459.017 260.9 456.067 257.95 454.267 253.95C452.467 249.95 451.567 244.65 451.567 238.05V219.15C451.567 215.35 450.917 212.65 449.617 211.05C448.417 209.45 446.117 208.65 442.717 208.65H431.467V195.15H447.817Z" fill="white"/>
</g>
<defs>
<clipPath id="clip0_2_20">
<path d="M0 0H512V512H0V0Z" fill="white"/>
</clipPath>
</defs>
</svg>
